<svg width="89" height="86" viewBox="0 0 89 86" fill="none" xmlns="http://www.w3.org/2000/svg">
<path d="M44.59 78.82C64.6987 78.82 81 62.5187 81 42.41C81 22.3013 64.6987 6 44.59 6C24.4813 6 8.17999 22.3013 8.17999 42.41C8.17999 62.5187 24.4813 78.82 44.59 78.82Z" fill="#282E72"/>
<path d="M22.56 33.9H27.54L26.86 36.12C28.09 34.82 29.83 33.59 32.01 33.59C34.16 33.59 35.39 34.75 35.8 36.42C37.2 34.78 39.01 33.59 41.26 33.59C45.01 33.59 46.55 36.59 45.36 40.45L43.72 45.87C43.34 47.03 43.28 48.12 44.3 48.12C45.87 48.12 47.85 45.49 49.73 41.67C50.38 41.7 51.33 42.21 51.68 42.63C49.33 47.78 46.15 51.61 42.26 51.61C38.27 51.61 38.16 47.68 39.05 44.78L40.14 41.23C40.65 39.63 40.69 37.75 38.88 37.75C37.45 37.75 36.29 39.01 35.5 40.31L32.15 51.3H27.17L30.24 41.23C30.75 39.63 30.72 37.75 28.94 37.75C27.51 37.75 26.38 39.01 25.6 40.28L22.22 51.3H17.24L22.56 33.9Z" fill="#73C9BA"/>
<path d="M44.28 59.32L52.06 33.9H57.04L56.49 35.67C57.72 34.54 59.42 33.59 61.3 33.59C62.44 33.59 63.53 33.91 64.44 34.57C66.58 36.13 66.72 38.98 66.76 40C66.96 44.46 63.69 47.61 63 48.26C64.47 47.45 66.37 46.16 68.15 44.15C68.91 43.29 69.52 42.45 70.01 41.67C70.66 41.7 71.61 42.21 71.96 42.63C71.12 43.9 69.94 45.42 68.34 46.95C66.99 48.23 65.67 49.21 64.53 49.93C61.68 51.26 59.15 51.73 57.56 51.6C57.05 51.56 55.84 51.46 54.65 50.74C54.22 50.48 53.98 50.25 53.9 50.17C53.1 49.39 52.85 48.45 52.75 47.95C51.59 51.74 50.43 55.53 49.27 59.31H44.28V59.32ZM55.16 40.72C54.71 41.47 54.5 42.13 54.41 42.47C54.28 42.94 54.13 43.49 54.17 44.2C54.2 44.65 54.28 46.13 55.39 46.85C55.79 47.11 56.25 47.23 56.73 47.23C57.34 47.23 57.92 47.02 58.5 46.68C58.95 46.35 59.62 45.8 60.24 44.97C60.66 44.41 61.88 42.72 61.74 40.5C61.7 39.88 61.61 38.43 60.6 37.81C60.17 37.55 59.74 37.53 59.52 37.53C57.16 37.5 55.38 40.36 55.16 40.72Z" fill="#73C9BA"/>
</svg>
